<svg width="237" height="24" viewBox="0 0 237 24" fill="none" xmlns="http://www.w3.org/2000/svg">
<g clip-path="url(#clip0_897_242)">
<g clip-path="url(#clip1_897_242)">
<path d="M11.7002 1.99816e-09C19.7749 -0.000102264 23.7003 3.92526 23.7002 12C23.7001 20.0747 19.7749 23.9999 11.7002 24C3.62576 23.9998 -0.299601 20.0744 -0.299805 12C-0.299687 3.92531 3.6255 0.000117499 11.7002 1.99816e-09ZM11.6768 21.5996L13.6846 15.5996H9.68457L11.6768 21.5996ZM5.7002 15.3555C5.7002 15.4431 5.70004 15.4873 5.71777 15.5205C5.73167 15.5463 5.75354 15.5681 5.7793 15.582C5.81254 15.5998 5.85669 15.5996 5.94434 15.5996H9.68457L5.7002 3.59961V15.3555ZM13.6846 15.5996H17.4561C17.5437 15.5996 17.5878 15.5998 17.6211 15.582C17.6468 15.5681 17.6687 15.5463 17.6826 15.5205C17.7004 15.4873 17.7002 15.4431 17.7002 15.3555V3.59961L13.6846 15.5996Z" fill="white"/>
<path fill-rule="evenodd" clip-rule="evenodd" d="M30.7623 5.05157C30.7055 5.10773 30.659 5.34664 30.659 5.58248C30.659 5.94952 30.7479 6.03744 31.2787 6.19488C31.6196 6.296 31.8983 6.38515 31.8981 6.39282C31.898 6.40065 31.2008 9.12858 30.3488 12.4551C29.4968 15.7816 28.7998 18.5609 28.7998 18.6312C28.7998 18.7017 29.5319 18.7592 30.4266 18.7592H32.0534V18.2343C32.0534 17.7759 31.9945 17.6966 31.5886 17.6084C31.2445 17.5335 31.1247 17.4207 31.1273 17.1743C31.1318 16.7521 32.4684 8.78348 32.5479 8.70461C32.5805 8.67254 33.1526 10.1794 33.8196 12.0532C36.4954 19.5712 36.6578 18.8827 36.6578 18.8827C36.6578 18.8827 37.1353 18.5382 38.6457 13.7723C39.5284 10.9872 40.2606 8.67408 40.2728 8.63188C40.2999 8.53889 40.776 10.6099 41.6485 14.6162C42.0068 16.2619 42.3677 17.8674 42.4504 18.1838L42.6007 18.7592H44.9962H47.3916V18.2976C47.3916 17.9076 47.3016 17.8003 46.8106 17.6055L46.2296 17.3748L45.8101 15.4968C43.8507 6.72656 43.487 5.16435 43.3798 5.05801C43.3126 4.99126 42.6366 4.95674 41.8774 4.98129L40.4972 5.02594L39.2548 8.12321C38.5715 9.82675 37.9739 11.2588 37.9267 11.3055C37.8796 11.3521 37.3648 10.2001 36.7827 8.74527C36.2006 7.29032 35.5942 5.84119 35.4351 5.52463L35.1457 4.94922H33.0056C31.8286 4.94922 30.819 4.99525 30.7623 5.05157Z" fill="white"/>
<path fill-rule="evenodd" clip-rule="evenodd" d="M52.4816 5.47753C52.4816 5.95551 52.5397 6.02517 53.0915 6.21038L53.7015 6.41492L51.1663 12.5527L48.6313 18.6905L50.2543 18.734L51.8772 18.7778L54.4569 17.353C55.8758 16.5695 57.092 15.9056 57.1596 15.8777C57.2273 15.8497 57.3554 16.0224 57.4445 16.2613C57.5336 16.5002 57.7841 17.1617 58.0013 17.7314L58.3961 18.7672H60.7163H63.0366L62.988 18.2812C62.9478 17.8793 62.8456 17.7643 62.3972 17.6163L61.8549 17.4376L59.5082 11.2357L57.1614 5.03392L54.8215 4.99157L52.4816 4.94922V5.47753ZM55.6507 11.5169C56.2376 13.0994 56.7444 14.4707 56.7769 14.5645C56.8381 14.74 52.813 16.231 52.6673 16.087C52.5677 15.9881 54.3683 8.63986 54.4923 8.63986C54.5426 8.63986 55.064 9.93462 55.6507 11.5169Z" fill="white"/>
<path fill-rule="evenodd" clip-rule="evenodd" d="M61.9224 5.46295C61.9224 5.91423 61.9932 6.0043 62.5037 6.20286L63.085 6.42903L65.3823 12.2791C66.6458 15.4967 67.7176 18.2732 67.7641 18.4494C67.8437 18.7508 67.939 18.767 69.3938 18.7261L70.9389 18.6825L73.5546 12.0077C74.9933 8.3365 76.1718 5.24659 76.1733 5.14102C76.1753 4.99771 75.687 4.94922 74.2394 4.94922H72.3028V5.47354C72.3028 5.94354 72.3642 6.01888 72.8973 6.2024L73.4917 6.40694L72.5065 9.70599C70.8106 15.3853 70.733 15.6164 70.6017 15.3767C70.5343 15.2538 69.6268 12.9782 68.5852 10.3198C67.5434 7.66134 66.6267 5.36551 66.5479 5.21775C66.4214 4.98098 66.1399 4.94922 64.1634 4.94922H61.9224V5.46295Z" fill="white"/>
<path fill-rule="evenodd" clip-rule="evenodd" d="M77.4126 5.48014C77.4126 5.96655 77.4645 6.0264 78.0323 6.19488L78.6521 6.37886V12.569V18.7592H80.5887H82.5253V11.8542V4.94922H79.969H77.4126V5.48014ZM86.2443 5.29447C85.1803 7.78226 83.3679 12.7506 83.4221 13.0316C83.4862 13.3636 83.5436 13.381 84.2863 13.2947L85.0817 13.2024L86.0065 15.9808L86.9313 18.7592H88.9281C90.4617 18.7592 90.9076 18.7147 90.8506 18.5674C90.8097 18.462 90.168 16.6839 89.4243 14.6162C88.6806 12.5485 88.055 10.8387 88.0341 10.8166C88.013 10.7945 87.6888 10.9102 87.3135 11.0738C86.9381 11.2374 86.2543 11.5176 85.7938 11.6965L84.9565 12.0218L85.3415 11.516C85.5533 11.2378 86.4732 9.96163 87.3857 8.68006C88.7612 6.7485 89.1368 6.31994 89.5811 6.17478C90.0535 6.02026 90.117 5.93725 90.117 5.4743V4.94922H88.2546C86.4701 4.94922 86.3858 4.96364 86.2443 5.29447Z" fill="white"/>
<path fill-rule="evenodd" clip-rule="evenodd" d="M95.9449 5.47753C95.9449 5.95551 96.003 6.02517 96.5549 6.21038L97.1649 6.41492L94.6297 12.5527L92.0947 18.6905L93.7176 18.734L95.3406 18.7778L97.9203 17.353C99.3392 16.5695 100.555 15.9056 100.623 15.8777C100.691 15.8497 100.819 16.0224 100.908 16.2613C100.997 16.5002 101.247 17.1617 101.465 17.7314L101.859 18.7672H104.18H106.5L106.451 18.2812C106.411 17.8793 106.309 17.7643 105.861 17.6163L105.318 17.4376L102.972 11.2357L100.625 5.03392L98.2849 4.99157L95.9449 4.94922V5.47753ZM99.1141 11.5169C99.701 13.0994 100.208 14.4707 100.24 14.5645C100.301 14.74 96.2763 16.231 96.1307 16.087C96.0311 15.9881 97.8317 8.63986 97.9557 8.63986C98.006 8.63986 98.5273 9.93462 99.1141 11.5169Z" fill="white"/>
</g>
<path d="M116.921 18.6055H112.328V4.4096H117.064C121.246 4.4096 123.79 7.09634 123.79 11.4885C123.79 15.8997 121.256 18.6055 116.921 18.6055ZM114.444 16.7667H116.787C120.093 16.7667 121.665 14.7945 121.665 11.4885C121.665 8.20152 120.093 6.2484 116.93 6.2484H114.444V16.7667ZM129.622 18.8341C126.639 18.8341 124.829 16.6333 124.829 13.594C124.829 10.5262 126.773 8.31585 129.517 8.31585C132.365 8.31585 134.214 10.469 134.214 13.575V14.1181H126.811C126.878 15.9283 127.888 17.1573 129.65 17.1573C130.965 17.1573 131.841 16.4999 132.127 15.5472H134.061C133.69 17.4908 131.899 18.8341 129.622 18.8341ZM126.83 12.5937H132.251C132.089 10.9931 131.06 9.99268 129.536 9.99268C128.021 9.99268 127.002 10.9931 126.83 12.5937ZM139.312 18.8437C137.006 18.8437 135.253 17.7289 135.11 15.5472H137.092C137.206 16.6333 137.968 17.243 139.274 17.243C140.55 17.243 141.341 16.6619 141.341 15.8616C141.341 15.1756 140.76 14.7754 139.893 14.5849L138.226 14.2133C136.33 13.7941 135.339 12.8318 135.339 11.336C135.339 9.55441 136.882 8.32538 139.188 8.32538C141.455 8.32538 143.075 9.583 143.132 11.6123H141.208C141.189 10.631 140.407 9.91646 139.217 9.91646C138.073 9.91646 137.349 10.5262 137.349 11.2979C137.349 11.9744 137.892 12.3841 138.797 12.5937L140.512 12.9748C142.475 13.413 143.37 14.2895 143.37 15.7472C143.37 17.6623 141.656 18.8437 139.312 18.8437ZM144.781 18.6055V8.54451H146.792V18.6055H144.781ZM145.782 6.81052C145.067 6.81052 144.515 6.26745 144.515 5.58148C144.515 4.88598 145.067 4.34291 145.782 4.34291C146.496 4.34291 147.058 4.88598 147.058 5.58148C147.058 6.26745 146.496 6.81052 145.782 6.81052ZM153.09 22.7213C150.623 22.7213 148.965 21.578 148.698 19.6058H150.708C150.966 20.5776 151.871 21.0826 153.09 21.0826C154.71 21.0826 155.682 20.1775 155.682 18.5483V17.0239H155.672C154.977 18.1958 153.89 18.7389 152.566 18.7389C149.946 18.7389 148.203 16.6142 148.203 13.5464C148.203 10.469 149.956 8.34443 152.557 8.34443C153.862 8.34443 155.005 8.87797 155.682 10.0784H155.691V8.54451H157.673V18.4721C157.673 21.5209 155.624 22.7213 153.09 22.7213ZM152.976 17.0144C154.691 17.0144 155.796 15.6424 155.796 13.5369C155.796 11.4313 154.691 10.0594 152.976 10.0594C151.356 10.0594 150.241 11.2789 150.241 13.5369C150.241 15.7949 151.356 17.0144 152.976 17.0144ZM161.58 12.8128V18.6055H159.57V8.54451H161.542V10.0594C162.228 8.91608 163.257 8.34443 164.581 8.34443C166.648 8.34443 168.221 9.70685 168.221 12.3364V18.6055H166.21V12.5841C166.21 10.974 165.4 10.1451 164.009 10.1451C162.637 10.1451 161.58 10.9454 161.58 12.8128ZM179.474 18.8341C176.073 18.8341 173.977 17.0049 173.977 14.0037H176.092C176.101 15.8806 177.349 16.9858 179.474 16.9858C181.399 16.9858 182.666 16.0998 182.666 14.7183C182.666 13.6226 181.913 12.9938 179.941 12.527L178.388 12.1554C175.52 11.479 174.263 10.288 174.263 8.32538C174.263 5.82919 176.273 4.18095 179.322 4.18095C182.38 4.18095 184.314 5.88635 184.4 8.65884H182.351C182.247 7.02965 181.084 6.02927 179.293 6.02927C177.578 6.02927 176.368 6.93437 176.368 8.22057C176.368 9.24954 177.13 9.84024 179.083 10.3071L180.617 10.6691C183.466 11.3456 184.781 12.5746 184.781 14.6039C184.781 17.1573 182.694 18.8341 179.474 18.8341ZM186.392 22.5879V20.8921H187.478C188.107 20.8921 188.478 20.5491 188.783 19.7297L189.241 18.5388L185.353 8.54451H187.507L189.517 14.0609C189.784 14.8136 190.031 15.5662 190.279 16.3189C190.527 15.5662 190.784 14.8136 191.051 14.0609L193.032 8.54451H195.157L190.584 20.368C190.022 21.8257 189.031 22.5879 187.669 22.5879H186.392ZM199.693 18.8437C197.387 18.8437 195.634 17.7289 195.491 15.5472H197.473C197.587 16.6333 198.35 17.243 199.655 17.243C200.932 17.243 201.722 16.6619 201.722 15.8616C201.722 15.1756 201.141 14.7754 200.274 14.5849L198.607 14.2133C196.711 13.7941 195.72 12.8318 195.72 11.336C195.72 9.55441 197.263 8.32538 199.569 8.32538C201.837 8.32538 203.456 9.583 203.513 11.6123H201.589C201.57 10.631 200.789 9.91646 199.598 9.91646C198.454 9.91646 197.73 10.5262 197.73 11.2979C197.73 11.9744 198.273 12.3841 199.178 12.5937L200.893 12.9748C202.856 13.413 203.752 14.2895 203.752 15.7472C203.752 17.6623 202.037 18.8437 199.693 18.8437ZM210.203 8.54451V10.2023H208.164V15.9473C208.164 16.6905 208.421 16.9477 209.221 16.9477H210.203V18.6055H208.935C207.049 18.6055 206.144 17.8242 206.144 16.2046V10.2023H204.372V8.54451H206.144V5.80061H208.164V8.54451H210.203ZM215.548 18.8341C212.566 18.8341 210.756 16.6333 210.756 13.594C210.756 10.5262 212.7 8.31585 215.443 8.31585C218.292 8.31585 220.14 10.469 220.14 13.575V14.1181H212.738C212.804 15.9283 213.814 17.1573 215.577 17.1573C216.892 17.1573 217.768 16.4999 218.054 15.5472H219.988C219.616 17.4908 217.825 18.8341 215.548 18.8341ZM212.757 12.5937H218.178C218.016 10.9931 216.987 9.99268 215.463 9.99268C213.948 9.99268 212.928 10.9931 212.757 12.5937ZM221.513 18.6055V8.54451H223.466V10.2309C224.086 8.9923 225.219 8.34443 226.468 8.34443C227.839 8.34443 228.945 9.12568 229.364 10.2023C229.907 9.11615 231.069 8.34443 232.556 8.34443C234.423 8.34443 235.909 9.56394 235.909 11.9839V18.6055H233.889V12.1554C233.889 10.7168 232.956 10.107 231.87 10.107C230.526 10.107 229.697 11.0312 229.697 12.3174V18.6055H227.716V12.022C227.716 10.8692 226.887 10.107 225.743 10.107C224.572 10.107 223.524 10.9454 223.524 12.5365V18.6055H221.513Z" fill="#9F9FA9"/>
</g>
<defs>
<clipPath id="clip0_897_242">
<rect width="237" height="24" fill="white"/>
</clipPath>
<clipPath id="clip1_897_242">
<rect width="112.5" height="24" fill="white"/>
</clipPath>
</defs>
</svg>
